<svg xmlns="http://www.w3.org/2000/svg" enable-background="new 0 0 98 98" viewBox="0 0 98 98"><rect width="94.04" height="4.81" x="2.25" y="92.19"/><rect width="87.03" height="4.81" x="5.76" y="85.38"/><rect width="2" height="3.892" x="26.866" y="8.353" transform="rotate(58.962 27.868 10.3)"/><rect width="2" height="18.396" x="14.851" y="8.325" transform="rotate(58.962 15.852 17.525)"/><rect width="15.761" height="2" x="71.541" y="14.9" transform="rotate(31.019 79.415 15.895)"/><rect width="4.163" height="2" x="66.24" y="8.227" transform="rotate(31.019 68.322 9.226)"/><polygon points="42.865 21.698 45.853 21.698 44.359 17.739"/><path d="M36.8279 20.9883h-2.4033v2.3164h2.4033c.7842 0 1.2578-.436 1.2578-1.1582C38.0857 21.5239 37.6492 20.9883 36.8279 20.9883zM37.9236 18.6353c0-.6099-.4238-1.0708-1.1582-1.0708h-2.3408v2.1416h2.3408C37.4998 19.7061 37.9236 19.2705 37.9236 18.6353z"/><path d="M48.99,1L1.71,29.4301h94.55L48.99,1z M37.1638,24.5869h-4.1963v-8.3047h4.084c1.5322,0,2.3662,0.9463,2.3662,2.1162
		c0,1.0337-0.6729,1.7432-1.4443,1.9053c0.8965,0.1367,1.6064,1.021,1.6064,2.0293C39.5799,23.6279,38.7322,24.5869,37.1638,24.5869
		z M46.8738,24.5869l-0.6104-1.6064h-3.8096l-0.6104,1.6064h-1.6563l3.2627-8.3047h1.8174l3.2627,8.3047H46.8738z M56.6219,24.5869
		h-1.4072l-4.333-5.9395v5.9395h-1.457v-8.3047h1.4941l4.2461,5.752v-5.752h1.457V24.5869z M60.5799,21.0757l-0.7344,0.8589v2.6523
		h-1.457v-8.3047h1.457v3.9468l3.25-3.9468h1.8047l-3.374,3.9092l3.6357,4.3955h-1.8047L60.5799,21.0757z"/><polygon points="22.93 83.38 22.93 43.03 25.75 43.03 25.75 38.39 8.56 38.39 8.56 43.03 11.37 43.03 11.37 83.38"/><polygon points="65.76 83.38 65.76 43.03 68.58 43.03 68.58 38.39 51.38 38.39 51.38 43.03 54.19 43.03 54.19 83.38"/><polygon points="87.18 83.38 87.18 43.03 89.99 43.03 89.99 38.39 72.8 38.39 72.8 43.03 75.61 43.03 75.61 83.38"/><polygon points="44.35 83.38 44.35 43.03 47.17 43.03 47.17 38.39 29.97 38.39 29.97 43.03 32.78 43.03 32.78 83.38"/><rect width="87.53" height="4.96" x="5.29" y="31.43"/></svg>