<?xml version="1.0" encoding="utf-8"?>
<!-- Svg Vector Icons : http://www.onlinewebfonts.com/icon -->
<!DOCTYPE svg PUBLIC "-//W3C//DTD SVG 1.1//EN" "http://www.w3.org/Graphics/SVG/1.1/DTD/svg11.dtd">
<svg version="1.1" xmlns="http://www.w3.org/2000/svg" xmlns:xlink="http://www.w3.org/1999/xlink" x="0px" y="0px" viewBox="0 0 1000 1000" enable-background="new 0 0 1000 1000" xml:space="preserve">
<metadata> Svg Vector Icons : http://www.onlinewebfonts.com/icon </metadata>
<g><path d="M758.4,660l-1.1-0.8c0,0-66.1-40.5-95.4-58.6c-11.3-7-22.4-10.1-33.1-9.3c-14.8,1.1-23.2,9.5-24.1,10.5l-1.1,1.3c0,0.1-4.7,6.7-15.5,18c-10.4,11-26.9,10.4-40.8-1.7C529.6,604,428.7,488.5,396.8,449c-6.4-7.9-9.2-15.3-8.7-22.7c1.1-15.1,16.6-28.7,25-35.9l3-2.6c16.8-15.1,16.8-39.2,9.8-55.2c-4.6-10.4-48.2-93.5-53.3-102.7c-6.1-10.9-15.8-23.3-36.4-21.7c-11.7,0.9-42.1,8.2-60.6,24.9l-4.2,3.7c-16.8,14.7-48.2,42-44.3,94c5,66,58,160.6,161.8,289.2c111,137.5,235.3,196.1,284.2,192.4C718,808.8,757,746,768.8,716C780.2,687.2,767,666.8,758.4,660z"/><path d="M500,10C229.4,10,10,229.4,10,500s219.4,490,490,490s490-219.4,490-490S770.6,10,500,10z M500,928.8C250.2,928.8,71.3,749.8,71.3,500c0-249.8,179-428.8,428.8-428.8s428.8,179,428.8,428.8C928.8,749.8,749.8,928.8,500,928.8z"/></g>
</svg>